<svg width="12" height="13" viewBox="0 0 12 13" fill="none" xmlns="http://www.w3.org/2000/svg">
<circle cx="2.5" cy="2.5" r="2.5" fill="#1C98E0"/>
<circle cx="9.5" cy="10.5" r="2.5" fill="#1C98E0"/>
<path d="M2.125 5.25C1.92846 6.25726 2.01596 6.53581 2.69444 7.25C3.13514 7.71389 3.40055 8.43776 3.75 8.97222C4.51381 10.1404 5.94779 10.0858 7 10.875" stroke="black" stroke-opacity="0.5" stroke-linecap="round"/>
<path d="M1.375 5.5C1.44772 5.68635 1.58282 6.87388 1.75 6.97222C2.02947 7.13662 2.23008 7.36283 2.5 7.52778C3.16004 7.93114 3.28659 8.78724 4.05556 9.00694C4.18908 9.0451 6.36122 11.392 6.49306 10.9306C6.66869 10.3158 6.59514 9.5142 5.9375 9.36806C5.45345 9.26049 4.80319 8.89552 4.47222 8.52778C4.34928 8.39118 4.11516 8.04006 4.02778 7.875C3.87842 7.59289 3.55761 7.35301 3.49306 7.0625C3.36983 6.508 2.5 6.07276 2.5 5.5" stroke="#1C98E0" stroke-linecap="round"/>
<path d="M2.75 5.5C2.38101 5.77132 1.06256 6.49307 2.1875 6.74306C2.36637 6.78281 2.7905 7.1327 2.68056 6.98611C2.48636 6.72718 2.53885 6.41648 2.47222 6.125C2.43219 5.94987 2.36813 5.39121 2.125 5.375C1.92925 5.36195 2.463 5.38381 2.42361 5.36806C2.3719 5.34737 1.89586 5.13889 2.06944 5.13889C2.39578 5.13889 2.40966 5.92737 2.5 6.125C2.61458 6.37565 2.64289 6.63221 2.77778 6.875C2.91166 7.11598 3.16158 7.10953 3.31944 7.3125C3.72992 7.84025 3.82626 8.54153 4.27778 9.02778C4.58224 9.35566 5.14608 10.2894 5.5625 10.3819C5.99176 10.4773 5.69665 10.5037 5.43056 10.3472C5.13328 10.1724 5.53603 9.89243 5.63194 9.8125C5.96582 9.53427 6.17788 9.9365 6.30556 10.1736C6.4393 10.422 6.58578 10.5317 6.72222 10.75C6.85062 10.9554 7.08667 10.8922 7.22222 11.0278C7.22713 11.0327 6.75 11.2391 6.75 10.8125C6.75 10.2006 6.86739 9.84536 6.22222 9.59722C5.76263 9.42046 5.15018 9.39465 4.69444 9.1875C4.1143 8.9238 4.02438 8.70493 3.59722 8.27778C3.47042 8.15098 3.24484 8.03151 3.15278 7.875C2.96543 7.55651 2.68992 7.68992 2.4375 7.4375C2.18257 7.18257 2.10747 7.14002 2 6.76389C1.9702 6.65958 1.9021 6.21375 1.84722 6.15278C1.63593 5.91801 1.5 5.92043 1.5 5.5625C1.5 5.25554 1.25 5.16567 1.25 4.875" stroke="#1C98E0" stroke-linecap="round"/>
</svg>
